<?xml version="1.0" encoding="utf-8"?>
<!-- Generator: Adobe Illustrator 25.3.1, SVG Export Plug-In . SVG Version: 6.00 Build 0)  -->
<svg version="1.1" id="Layer_1" xmlns="http://www.w3.org/2000/svg" xmlns:xlink="http://www.w3.org/1999/xlink" x="0px" y="0px"
	 viewBox="0 0 293.65 295.24" style="enable-background:new 0 0 293.65 295.24;" xml:space="preserve">
<style type="text/css">
	.st0{fill:#ED1C24;}
	.st1{fill:#A7A9AC;}
	.st2{fill:none;stroke:#000000;stroke-miterlimit:10;}
</style>
<g>
	<path class="st0" d="M88,171.75v-22.05H49.53v-7.23l36.94-51.71h12.1v50.34h11.59v8.6H98.57v22.05H88z M88,141.1v-27.04
		c0-4.24,0.13-8.47,0.38-12.71H88c-2.55,4.73-4.59,8.22-6.88,11.96l-20.25,27.54v0.25H88z"/>
	<path class="st0" d="M173.72,130.38c0,27.54-10.45,42.74-28.79,42.74c-16.18,0-27.13-14.83-27.39-41.62
		c0-27.16,11.97-42.12,28.79-42.12C163.79,89.38,173.72,104.59,173.72,130.38z M128.76,131.63c0,21.06,6.62,33.02,16.81,33.02
		c11.46,0,16.94-13.08,16.94-33.77c0-19.94-5.22-33.02-16.81-33.02C135.89,97.86,128.76,109.57,128.76,131.63z"/>
	<path class="st0" d="M218.68,171.75v-22.05h-38.47v-7.23l36.94-51.71h12.1v50.34h11.59v8.6h-11.59v22.05H218.68z M218.68,141.1
		v-27.04c0-4.24,0.13-8.47,0.38-12.71h-0.38c-2.55,4.73-4.58,8.22-6.88,11.96l-20.25,27.54v0.25H218.68z"/>
</g>
<g>
	<path class="st1" d="M95.27,215.01c0.12,6.31,4.83,8.91,10.28,8.91c3.9,0,6.25-0.58,8.3-1.33l0.93,3.34
		c-1.92,0.74-5.2,1.59-9.97,1.59c-9.23,0-14.74-5.2-14.74-12.95s5.33-13.85,14.06-13.85c9.78,0,12.38,7.37,12.38,12.1
		c0,0.96-0.12,1.7-0.19,2.18H95.27z M111.24,211.66c0.06-2.97-1.42-7.59-7.55-7.59c-5.51,0-7.93,4.35-8.36,7.59H111.24z"/>
	<path class="st1" d="M123.26,209.33c0-3.02-0.06-5.62-0.25-8.01h4.77l0.19,5.04h0.25c1.36-3.45,4.64-5.62,8.3-5.62
		c0.62,0,1.05,0.05,1.55,0.16v4.4c-0.56-0.11-1.11-0.16-1.86-0.16c-3.84,0-6.56,2.49-7.31,6c-0.12,0.64-0.25,1.38-0.25,2.17V227
		h-5.39V209.33z"/>
	<path class="st1" d="M143.75,209.33c0-3.02-0.06-5.62-0.25-8.01h4.77l0.19,5.04h0.25c1.36-3.45,4.64-5.62,8.3-5.62
		c0.62,0,1.05,0.05,1.55,0.16v4.4c-0.56-0.11-1.11-0.16-1.86-0.16c-3.84,0-6.56,2.49-7.31,6c-0.12,0.64-0.25,1.38-0.25,2.17V227
		h-5.39V209.33z"/>
	<path class="st1" d="M190.51,213.94c0,9.5-7.68,13.63-14.92,13.63c-8.11,0-14.37-5.09-14.37-13.21c0-8.59,6.56-13.64,14.86-13.64
		C184.69,200.73,190.51,206.09,190.51,213.94z M166.73,214.21c0,5.62,3.78,9.87,9.1,9.87c5.2,0,9.1-4.19,9.1-9.97
		c0-4.35-2.54-9.87-8.98-9.87S166.73,209.33,166.73,214.21z"/>
	<path class="st1" d="M197.38,209.33c0-3.02-0.06-5.62-0.25-8.01h4.77l0.19,5.04h0.25c1.36-3.45,4.64-5.62,8.3-5.62
		c0.62,0,1.05,0.05,1.55,0.16v4.4c-0.56-0.11-1.11-0.16-1.86-0.16c-3.84,0-6.56,2.49-7.31,6c-0.12,0.64-0.25,1.38-0.25,2.17V227
		h-5.39V209.33z"/>
</g>
<circle class="st2" cx="147.64" cy="147.67" r="140.5"/>
</svg>
